# xmcd
#
# Track frame offsets: 
#        150
#        19198
#        28933
#        48643
#        61150
#        73156
#        92957
#        107143
#        121956
#        133230
#        142498
#        155214
#        167888
#        178786
#        192018
#        203627
#        222815
#        245381
#        258132
#        274018
#        291945
#        307601
#
# Disc length: 4331 seconds
#
# Revision: 0
# Processed by: cddbd v1.5.2PL0 Copyright (c) Steve Scherf et al.
# Submitted via: ExactAudioCopy v0.95b3
#
DISCID=5510e916
DTITLE=Cream  - Magical Mystery Mixes TJT089   FLAC
DYEAR=1900
DGENRE=
TTITLE0=Sunshine Of Your Love
TTITLE1=Four Until Late
TTITLE2=Sleepy Time Time
TTITLE3=The Coffee Song
TTITLE4=Anyone For Tennis
TTITLE5=As You Said
TTITLE6=Take It Back
TTITLE7=Doing The Scrapyard Thing
TTITLE8=Outside Woman Blues
TTITLE9=Lawdy Mama
TTITLE10=Lawdy Mama
TTITLE11=Strange Brew
TTITLE12=Wrapping Paper
TTITLE13=I Feel Free
TTITLE14=Swablr
TTITLE15=Politician
TTITLE16=Sitting On Top Of The World
TTITLE17=Tales Of Brave Ulysses
TTITLE18=Blue Condition
TTITLE19=What A Bringdown
TTITLE20=We're Going Wrong
TTITLE21=We're Going Wrong
EXTD=
EXTT0=
EXTT1=
EXTT2=
EXTT3=
EXTT4=
EXTT5=
EXTT6=
EXTT7=
EXTT8=
EXTT9=
EXTT10=
EXTT11=
EXTT12=
EXTT13=
EXTT14=
EXTT15=
EXTT16=
EXTT17=
EXTT18=
EXTT19=
EXTT20=
EXTT21=
PLAYORDER=
